<?xml version="1.0" encoding="UTF-8" standalone="no"?>

              <svg
   
   viewBox="0 0 512.005 512.005"
   version="1.1"
   id="svg2808"
   sodipodi:docname="logoAvio.svg"
   inkscape:version="1.2 (dc2aedaf03, 2022-05-15)"
   xmlns:inkscape="http://www.inkscape.org/namespaces/inkscape"
   xmlns:sodipodi="http://sodipodi.sourceforge.net/DTD/sodipodi-0.dtd"
   xmlns="http://www.w3.org/2000/svg"
   xmlns:svg="http://www.w3.org/2000/svg">
  <defs
     id="defs2812" />
  <sodipodi:namedview
     id="namedview2810"
     pagecolor="#ffffff"
     bordercolor="#666666"
     borderopacity="1.0"
     inkscape:showpageshadow="2"
     inkscape:pageopacity="0.0"
     inkscape:pagecheckerboard="0"
     inkscape:deskcolor="#d1d1d1"
     showgrid="false"
     inkscape:zoom="0.32592885"
     inkscape:cx="257.72496"
     inkscape:cy="291.47466"
     inkscape:window-width="1920"
     inkscape:window-height="1009"
     inkscape:window-x="-8"
     inkscape:window-y="-8"
     inkscape:window-maximized="1"
     inkscape:current-layer="svg2808" />
  <rect
     fill="#2a2a31"
     x="16.539"
     y="425.626"
     width="479.767"
     height="50.502"
     transform="matrix(1,0,0,1,0,0)"
     id="rect2804"
     style="fill:#000000" />
  <path
     class="plane-take-off"
     d="m -649.06234,-53.233192 c -5.429,-20.200999 -26.135,-32.194999 -46.335,-26.765999 l -134.20899,35.981999 -174.23197,-162.488998 -48.734,13.13 104.53897,181.174998 -125.49697,33.584 -49.618,-39.013 -36.614,9.849 45.957,79.667 19.317,33.457002 40.528,-10.858002 134.20897,-35.983 109.71499,-29.417 134.209,-35.983 c 20.199,-5.429 32.194,-26.134 26.765,-46.335 z"
     id="path2806" />
  <path
     style="fill:#000000;stroke-width:3.77953"
     d="m 206.42377,387.72683 c -3.76936,-0.50253 -7.95261,-1.8216 -9.29638,-2.93128 -1.34297,-1.10967 -8.0254,-2.66498 -14.85029,-3.45288 -6.82408,-0.7898 -18.57611,-3.982 -26.11562,-7.0959 -7.53949,-3.11401 -17.76178,-6.65933 -22.71584,-7.87845 -4.95406,-1.22031 -15.45886,-5.20263 -23.34341,-8.85232 -7.88537,-3.64938 -18.497008,-7.75579 -23.581642,-9.12512 C 78.35511,346.19249 67.150713,338.04395 47.429466,319.96308 37.036235,310.43475 33.089611,290.80475 32.929752,247.85477 l -0.142449,-37.69648 8.87931,-17.13517 c 6.369838,-12.29112 13.47408,-21.46712 25.131137,-32.4595 19.193407,-18.09853 27.308235,-21.69947 39.66966,-17.60265 11.02792,3.65509 39.55804,2.69791 43.72309,-1.46563 1.90803,-1.90827 -4.79102,-5.51309 -10.31566,-5.55289 -2.67409,-0.0158 -6.14113,-1.57628 -7.70491,-3.46183 -1.56456,-1.88436 -4.12231,-3.42716 -5.6837,-3.42716 -8.3198,0 -28.586354,-25.36738 -28.586354,-35.781965 0,-15.484663 14.127784,-28.082917 22.745154,-20.283448 3.59288,3.251236 4.75622,2.961115 13.52631,-3.393685 5.86257,-4.246401 8.9545,-7.987898 7.94785,-9.616563 -1.24404,-2.009954 -1.8724,-1.988982 -2.56645,0.08942 -0.50648,1.516526 -1.77666,2.228374 -2.82603,1.579283 -1.04699,-0.648934 -3.81287,1.145605 -6.14349,3.983819 -4.55204,5.546562 -9.83689,7.724051 -9.83689,4.052274 0,-1.238276 4.11203,-4.973523 9.13809,-8.299861 9.48472,-6.276454 12.8022,-12.131101 4.29405,-7.577567 -3.37209,1.806647 -4.37556,1.833554 -3.30007,0.08942 0.84915,-1.375897 3.52086,-3.557265 5.93536,-4.849354 3.43065,-1.836562 5.39961,-1.340048 9.01148,2.273167 7.17942,7.180054 5.67738,10.588301 -9.08666,20.614325 -7.53949,5.11977 -13.70753,10.776492 -13.70753,12.570478 0,3.670036 -8.76852,9.257038 -13.13695,8.370768 -1.5709,-0.319719 -2.85215,0.238997 -2.8474,1.235348 0,3.319449 9.68495,17.749441 14.58281,21.761681 2.65588,2.17448 6.06991,5.00311 7.58778,6.28302 1.51629,1.28014 4.79814,2.32698 7.29021,2.32698 2.49128,0 5.16615,1.02895 5.94328,2.2852 0.77556,1.25623 4.37477,2.28511 7.99613,2.28511 3.62137,0 7.2831,1.13065 8.13857,2.51549 0.87607,1.42077 4.38427,1.9472 8.05787,1.21438 4.44994,-0.88834 7.1074,-0.20972 8.41635,2.11765 1.66586,2.97615 3.96008,2.77269 17.7792,-1.59717 8.72657,-2.7578 18.60223,-4.77464 21.94661,-4.4812 8.37124,0.73282 51.84584,-17.98939 73.88347,-31.819114 3.76935,-2.365915 10.19538,-6.006354 14.27892,-8.090223 4.08353,-2.084739 8.72023,-6.499228 10.3022,-9.811559 3.36259,-7.038556 10.14237,-8.700379 16.50666,-4.04626 3.78835,2.769681 4.12865,4.321423 2.15098,9.79597 -2.06076,5.708716 -3.38316,6.443594 -10.8,6.002161 -4.64858,-0.26907 -8.45196,0.373532 -8.45196,1.447676 0,1.073748 -1.80039,2.575311 -3.99806,3.336784 -2.19846,0.762889 -9.1381,4.510245 -15.42089,8.327085 -6.28357,3.81747 -13.4796,7.9371 -15.99304,9.15534 -2.51185,1.21739 -6.11105,3.17084 -7.99613,4.33972 -1.88428,1.16949 -5.48269,2.88932 -7.99613,3.82348 -3.82633,1.42068 -3.26919,1.93216 3.42669,3.13997 4.3985,0.79265 9.02414,0.74468 10.28085,-0.11955 1.25671,-0.85239 4.34074,-0.72095 6.85416,0.29915 8.01749,3.23154 11.7647,2.30909 14.43482,-3.54887 1.43241,-3.14124 4.08036,-5.71141 5.88789,-5.71141 1.80672,0 3.66489,-1.13658 4.12785,-2.52744 1.10951,-3.33235 19.45772,-5.38544 23.02685,-2.57832 1.53132,1.20543 8.34513,2.81756 15.13994,3.58329 6.79481,0.76606 18.98606,4.58947 27.09139,8.4985 8.10455,3.90896 18.99477,8.60969 24.1989,10.44562 5.20412,1.83648 13.61019,7.66312 18.68057,12.9486 9.52192,9.92726 39.56438,36.23091 49.51919,43.35707 3.23991,2.31805 9.12383,12.07278 13.78191,22.84651 6.60884,15.28372 7.94945,20.88473 7.16993,29.94528 -0.53022,6.1298 -1.5614,12.11882 -2.29739,13.30922 -0.73598,1.19048 -1.79405,8.98394 -2.35357,17.31941 -0.56188,8.33547 -1.89932,16.22556 -2.97639,17.53387 -1.07706,1.31006 -4.00043,8.2041 -6.49803,15.32465 -4.31779,12.31478 -10.83878,21.23374 -27.14125,37.12548 -6.30416,6.14486 -42.98236,22.9004 -55.33979,25.28008 -19.08182,3.67487 -29.70692,3.71135 -35.18725,0.11954 -6.09206,-3.99157 -15.21195,-4.87721 -29.57633,-2.87137 -4.71506,0.65843 -9.17529,0.20892 -9.91286,-0.97214 -0.84678,-1.36688 -2.32113,-1.36394 -3.99252,0.005 -3.5905,2.94315 -12.9858,3.83567 -19.02404,1.80657 -3.63879,-1.22331 -8.77802,0.67267 -19.41973,7.16241 -17.81323,10.86138 -45.82264,17.22844 -64.73351,14.71532 z m 86.48702,-47.27146 c 3.24308,-2.45566 10.61956,-3.02244 31.40284,-2.40786 26.58254,0.78348 27.25918,0.68218 31.58883,-4.82213 3.29056,-4.18356 8.12196,-6.28001 18.85864,-8.18321 7.93994,-1.40882 15.97801,-3.82349 17.86229,-5.36898 4.01627,-3.29341 20.26968,-10.75456 32.77669,-15.04615 5.08621,-1.74381 10.04581,-5.43387 11.77736,-8.75934 1.64449,-3.15943 5.71615,-8.2918 9.04865,-11.40541 7.27915,-6.80082 19.5068,-27.5811 19.5068,-33.15045 0,-5.79189 -15.34412,-25.78768 -21.21934,-27.65256 -2.75797,-0.87338 -9.7166,-5.55559 -15.46282,-10.40106 -5.74623,-4.84525 -11.69901,-8.8096 -13.22796,-8.8096 -1.52816,0 -3.37208,-1.54335 -4.0954,-3.42716 -0.72807,-1.88435 -2.52768,-3.42685 -4.0131,-3.42685 -1.48385,0 -6.25746,-3.04247 -10.6077,-6.76125 -4.35023,-3.71846 -9.64853,-6.80288 -11.77339,-6.854 -2.12329,-0.0317 -4.50059,-1.12464 -5.28011,-2.38681 -0.78346,-1.26226 -3.87856,-1.67505 -6.8866,-0.92125 -3.23201,0.81354 -12.96285,-1.12171 -23.79292,-4.7301 -10.07904,-3.35656 -19.27254,-5.51696 -20.43033,-4.80155 -4.4634,2.75781 -16.01442,-1.75568 -25.08682,-9.80435 -5.21047,-4.6224 -9.47285,-9.26266 -9.47285,-10.31164 0,-3.501 -10.22941,-12.75233 -14.14437,-12.79246 -2.12408,-0.0237 -4.57895,-1.19641 -5.45342,-2.61418 -1.11902,-1.80957 -7.42476,-2.05482 -21.26841,-0.82247 -10.82294,0.9631 -21.73374,1.86939 -24.24716,2.01597 -2.51185,0.14956 -5.89897,1.11861 -7.52447,2.16252 -1.63342,1.04685 -4.18878,0.90328 -5.7122,-0.32288 -1.51628,-1.22039 -9.95242,-1.81859 -18.74785,-1.33103 -12.68902,0.70275 -16.80263,1.86046 -19.91355,5.60434 -2.15652,2.59621 -5.81033,4.39803 -8.12116,4.00653 -2.31243,-0.39173 -6.71489,0.92124 -9.78783,2.91925 -3.07294,1.998 -10.54437,3.6975 -16.60399,3.77798 -6.68401,0.0895 -12.59722,1.57327 -15.03073,3.77742 -2.20716,1.99801 -5.70666,3.63079 -7.7777,3.63079 -4.33124,0 -11.77341,10.1627 -9.79178,13.3697 2.49522,4.03407 -13.103751,27.69062 -18.284926,27.73368 -1.376212,0.007 -7.343241,6.61437 -13.260402,14.67381 -5.916378,8.05904 -12.147718,15.18615 -13.846026,15.83786 -1.698307,0.65209 -3.800216,4.59611 -4.670743,8.76503 -0.869733,4.16861 -2.988255,9.80373 -4.707937,12.5226 -4.709514,7.44683 1.038298,17.23718 13.277029,22.61478 5.344199,2.34795 14.418988,7.44233 20.166005,11.31962 5.747017,3.87761 16.19884,8.33698 23.2271,9.90993 7.56087,1.69293 15.03549,5.11621 18.30468,8.3854 4.26555,4.26588 10.42963,6.36945 27.03521,9.22776 11.83037,2.03686 22.5457,4.55504 23.81191,5.59745 1.26542,1.04383 10.52776,1.1874 20.5791,0.32288 10.05215,-0.86435 22.3811,-0.68216 27.39767,0.40362 5.01657,1.08576 12.71988,2.2104 17.11761,2.50052 13.04118,0.85841 27.31613,6.27518 33.8585,12.84746 7.3828,7.41574 7.3377,7.40371 12.64708,3.38198 z m -86.48702,-10.35144 c 0.77555,-1.25624 0.37986,-2.28519 -0.8729,-2.28519 -1.25672,0 -2.91941,1.02895 -3.69654,2.28519 -0.77556,1.25624 -0.37987,2.28512 0.87289,2.28512 1.25672,0 2.91941,-1.02888 3.69655,-2.28512 z m 13.57616,-2.06986 c 0.70434,-1.13959 -0.77555,-1.53442 -3.29214,-0.87638 -5.33393,1.39387 -6.00897,2.94624 -1.27967,2.94624 1.8091,0 3.86827,-0.9332 4.57261,-2.06986 z m -21.57229,-2.49752 c 0,-1.25625 -1.0288,-2.28511 -2.28473,-2.28511 -1.2567,0 -2.28551,1.02886 -2.28551,2.28511 0,1.25623 1.02881,2.2852 2.28551,2.2852 1.25593,0 2.28473,-1.02897 2.28473,-2.2852 z m -38.83868,-3.69299 c 0,-0.48195 -2.56961,-0.87638 -5.71219,-0.87638 -3.14101,0 -5.71141,0.88533 -5.71141,1.96809 0,1.08277 2.56883,1.4776 5.71141,0.87638 3.141,-0.60145 5.71219,-1.48654 5.71219,-1.96809 z M 365.20753,57.27958 c 0,-1.779661 -2.82602,-5.304874 -6.28278,-7.833261 -5.50724,-4.029799 -5.78897,-4.788339 -2.28472,-6.146905 2.19845,-0.852398 5.5555,-0.951163 7.45877,-0.208926 3.96483,1.519454 8.63558,12.216018 6.70144,15.344986 -1.98876,3.218077 -5.59271,2.479559 -5.59271,-1.142599 z"
     id="path336" />
</svg>