<?xml version="1.0" encoding="UTF-8"?>
<!-- Created with Inkscape (http://www.inkscape.org/) -->
<svg id="svg5" width="210mm" height="297mm" version="1.1" viewBox="0 0 210 297" xml:space="preserve" xmlns="http://www.w3.org/2000/svg"><g id="layer1"><path id="path336" d="m103.25 112.75c-0.12603-0.0168-0.26589-0.0609-0.31081-0.098-0.0449-0.0371-0.26832-0.0891-0.49649-0.11544-0.22815-0.0264-0.62106-0.13313-0.87313-0.23724-0.25206-0.10411-0.59382-0.22264-0.75945-0.2634-0.16564-0.0408-0.51684-0.17394-0.78046-0.29596-0.26362-0.12201-0.6184-0.2593-0.78841-0.30508-0.27298-0.0735-0.64758-0.34593-1.3069-0.95043-0.34746-0.31856-0.47943-0.97485-0.48476-2.4108l-0.0047-1.2603 0.29687-0.57288c0.21295-0.41093 0.45047-0.71771 0.84021-1.0852 0.64168-0.60509 0.91299-0.72548 1.3263-0.58851 0.3687 0.1222 1.3226 0.0902 1.4618-0.049 0.0638-0.0638-0.16017-0.18432-0.34488-0.18565-0.0894-5.8e-4 -0.20531-0.0527-0.2576-0.11574-0.0523-0.063-0.13781-0.11458-0.19001-0.11458-0.27817 0-0.95574-0.84811-0.95574-1.1963 0-0.5177 0.47233-0.9389 0.76045-0.67814 0.12013 0.1087 0.15901 0.099 0.45223-0.11346 0.19599-0.14197 0.29937-0.26706 0.26572-0.32151-0.0416-0.0672-0.0626-0.0665-0.0858 3e-3 -0.0169 0.0507-0.0594 0.0745-0.0945 0.0528-0.035-0.0217-0.12748 0.0383-0.20539 0.13319-0.15218 0.18544-0.32889 0.25824-0.32889 0.13548 0-0.0414 0.13749-0.16628 0.30554-0.27749 0.3171-0.20984 0.428-0.40558 0.14354-0.25334-0.11274 0.0604-0.14627 0.0613-0.11032 3e-3 0.0284-0.046 0.11771-0.11893 0.19843-0.16213 0.1147-0.0614 0.18052-0.0448 0.30128 0.076 0.24004 0.24005 0.18982 0.354-0.30379 0.6892-0.25206 0.17117-0.45829 0.36029-0.45829 0.42027 0 0.1227-0.29315 0.30949-0.4392 0.27986-0.05251-0.0107-0.09535 8e-3 -0.09519 0.0413 5.76e-4 0.11098 0.3238 0.59342 0.48753 0.72756 0.0888 0.0727 0.20295 0.16727 0.25369 0.21006 0.0507 0.0428 0.16042 0.0778 0.24374 0.0778 0.0833 0 0.17272 0.0344 0.19869 0.0764 0.026 0.042 0.14626 0.0764 0.26734 0.0764 0.12107 0 0.24351 0.0378 0.27209 0.0841 0.0293 0.0475 0.14658 0.0651 0.2694 0.0406 0.14878-0.0297 0.23763-7e-3 0.28139 0.0708 0.0557 0.0995 0.13239 0.0927 0.59442-0.0534 0.29176-0.0922 0.62194-0.15963 0.73373-0.14982 0.27988 0.0245 1.7334-0.60144 2.4702-1.0638 0.12603-0.0791 0.34086-0.20081 0.4774-0.27048 0.13653-0.0697 0.29153-0.21729 0.34444-0.32803 0.11241-0.23532 0.33907-0.29088 0.55187-0.13528 0.12664 0.0926 0.13803 0.14448 0.0719 0.32751-0.0689 0.19086-0.11311 0.21543-0.36108 0.20067-0.15541-9e-3 -0.28256 0.0125-0.28256 0.0484s-0.0602 0.0861-0.13367 0.11156c-0.0735 0.0255-0.30553 0.15079-0.51558 0.2784-0.21006 0.12763-0.45066 0.26536-0.53468 0.30609-0.084 0.0407-0.20433 0.10601-0.26734 0.14509-0.063 0.0391-0.18332 0.0966-0.26735 0.12783-0.12792 0.0475-0.10929 0.0646 0.11458 0.10498 0.14704 0.0265 0.30171 0.0249 0.34372-4e-3 0.042-0.0285 0.14513-0.0241 0.22915 0.01 0.26806 0.10804 0.39334 0.0772 0.48259-0.11865 0.0479-0.10502 0.13644-0.19095 0.19686-0.19095 0.0604 0 0.12252-0.038 0.13801-0.0845 0.0371-0.11141 0.65053-0.18005 0.76985-0.0862 0.0512 0.0403 0.279 0.0942 0.50618 0.1198s0.63477 0.15344 0.90574 0.28413c0.27098 0.13069 0.63505 0.28785 0.80905 0.34923 0.174 0.0614 0.45504 0.2562 0.62454 0.43291 0.31836 0.3319 1.3228 1.2113 1.6556 1.4496 0.10831 0.0775 0.30502 0.40363 0.46077 0.76383 0.22094 0.51098 0.26577 0.69824 0.2397 1.0012-0.0176 0.20494-0.0522 0.40517-0.0768 0.44497s-0.06 0.30036-0.0787 0.57904-0.0635 0.54247-0.0995 0.58621c-0.036 0.0438-0.13376 0.27429-0.21724 0.51235-0.14436 0.41172-0.36238 0.70991-0.90743 1.2412-0.21076 0.20544-1.437 0.76563-1.8502 0.84519-0.63798 0.12286-0.9932 0.12408-1.1764 4e-3 -0.20367-0.13345-0.50858-0.16306-0.98882-0.096-0.15764 0.022-0.30678 7e-3 -0.33143-0.0325-0.0283-0.0457-0.0776-0.0456-0.13349 1.5e-4 -0.12004 0.0984-0.43414 0.12824-0.63603 0.0604-0.12165-0.0409-0.29348 0.0225-0.64926 0.23946-0.59555 0.36313-1.532 0.576-2.1642 0.49198zm2.8915-1.5804c0.10843-0.0821 0.35506-0.10105 1.0499-0.0805 0.88874 0.0262 0.91135 0.0228 1.0561-0.16122 0.11002-0.13987 0.27155-0.20996 0.63052-0.27359 0.26544-0.0471 0.53418-0.12783 0.59719-0.1795 0.13428-0.11011 0.67768-0.35956 1.0958-0.50304 0.17007-0.0583 0.33588-0.18167 0.39375-0.29285 0.055-0.10563 0.19113-0.27722 0.30254-0.38132 0.24335-0.22737 0.65216-0.92212 0.65216-1.1083 0-0.19364-0.513-0.86216-0.70943-0.92451-0.0922-0.0292-0.32484-0.18574-0.51695-0.34774-0.19212-0.16199-0.39113-0.29453-0.44226-0.29453-0.0511 0-0.11275-0.0516-0.13693-0.11458-0.0242-0.063-0.0845-0.11457-0.13416-0.11457-0.0496 0-0.2092-0.10172-0.35464-0.22605-0.14546-0.12432-0.32258-0.22744-0.39362-0.22915-0.071-1e-3 -0.15049-0.0376-0.17655-0.0798-0.0261-0.0422-0.12966-0.056-0.23022-0.0308-0.10806 0.0272-0.43339-0.0375-0.79548-0.15814-0.33696-0.11222-0.64433-0.18445-0.68304-0.16053-0.14923 0.0922-0.53541-0.0587-0.83873-0.32779-0.1742-0.15454-0.31672-0.30968-0.31672-0.34475 0-0.11705-0.34199-0.42635-0.47289-0.42769-0.071-7.3e-4 -0.15309-0.04-0.18233-0.0874-0.0374-0.0605-0.24822-0.0687-0.71105-0.0275-0.36184 0.0322-0.72663 0.0625-0.81065 0.0674-0.084 5e-3 -0.19724 0.0374-0.25159 0.0723-0.0546 0.035-0.14002 0.0302-0.19096-0.0108-0.0507-0.0408-0.33274-0.0608-0.62681-0.0445-0.42423 0.0235-0.56176 0.0622-0.66575 0.18737-0.0721 0.0868-0.19427 0.14704-0.27153 0.13395-0.0773-0.0131-0.22451 0.0308-0.32723 0.0976-0.10273 0.0668-0.35254 0.12362-0.55514 0.12631-0.22346 3e-3 -0.42114 0.0526-0.5025 0.12629-0.0738 0.0668-0.19079 0.12139-0.26004 0.12139-0.1448 0-0.39363 0.33977-0.32736 0.44699 0.0834 0.13487-0.43811 0.92578-0.61134 0.92722-0.046 2.9e-4 -0.2455 0.22114-0.44332 0.49059-0.19782 0.26944-0.40614 0.50772-0.46293 0.52951-0.05679 0.0218-0.12706 0.15366-0.15615 0.29304-0.02909 0.13937-0.09992 0.32777-0.15741 0.41867-0.15745 0.24897 0.03472 0.57629 0.44389 0.75608 0.17868 0.0785 0.48208 0.24882 0.67421 0.37845 0.19213 0.12964 0.54159 0.27873 0.77656 0.33132 0.25277 0.0566 0.50267 0.17105 0.61197 0.28035 0.14262 0.14262 0.34869 0.21295 0.90387 0.30851 0.39552 0.0681 0.75377 0.15229 0.79612 0.18714 0.0423 0.0349 0.35196 0.0397 0.68802 0.0108s0.74825-0.0228 0.91598 0.0135 0.42527 0.0739 0.5723 0.0836c0.43599 0.0287 0.91325 0.2098 1.132 0.42953 0.24681 0.24793 0.24531 0.24753 0.42281 0.11307zm-2.8915-0.34608c0.026-0.042 0.0128-0.0764-0.0292-0.0764s-0.0976 0.0344-0.12359 0.0764c-0.026 0.042-0.0128 0.0764 0.0292 0.0764s0.0976-0.0344 0.12359-0.0764zm0.45389-0.0692c0.0236-0.0381-0.026-0.0513-0.11006-0.0293-0.17835 0.0466-0.2009 0.0985-0.0428 0.0985 0.0605 0 0.12933-0.0312 0.15287-0.0692zm-0.72123-0.0835c0-0.042-0.0344-0.0764-0.0764-0.0764s-0.0764 0.0344-0.0764 0.0764 0.0344 0.0764 0.0764 0.0764 0.0764-0.0344 0.0764-0.0764zm-1.2985-0.12347c0-0.0161-0.0859-0.0293-0.19096-0.0293-0.10503 0-0.19096 0.0296-0.19096 0.0658s0.0859 0.0494 0.19096 0.0293c0.10502-0.0201 0.19096-0.0497 0.19096-0.0658zm6.8745-8.8452c0-0.0595-0.0945-0.17736-0.21006-0.26189-0.18413-0.13473-0.19355-0.16009-0.0764-0.20551 0.0735-0.0285 0.18575-0.0318 0.24939-7e-3 0.13255 0.0508 0.2887 0.40842 0.22404 0.51303-0.0665 0.10759-0.18699 0.0829-0.18699-0.0382z" fill="#4d4d4d"/></g></svg>
